<?xml version="1.0" encoding="utf-8"?>
<!-- Generator: Adobe Illustrator 21.1.0, SVG Export Plug-In . SVG Version: 6.00 Build 0)  -->
<svg version="1.1" id="Laag_1" xmlns="http://www.w3.org/2000/svg" xmlns:xlink="http://www.w3.org/1999/xlink" x="0px" y="0px"
	 width="397px" height="80px" viewBox="0 0 397 80" style="enable-background:new 0 0 397 80;" xml:space="preserve">
<style type="text/css">
	.st0{fill-rule:evenodd;clip-rule:evenodd;fill:#2B3087;}
	.st1{fill-rule:evenodd;clip-rule:evenodd;fill:#D9D9D9;}
</style>
<g>
	<path class="st0" d="M241.4,63.1H254l2-3.8h-8.8l9.4-18.4h-3.7L241.4,63.1L241.4,63.1z M266.3,60c-4.4,0-2-6-1-8
		c2.8-5.6,6.7-8.1,9.1-8.1c2.4,0,3.7,2.5,0.9,8.1c-1.2,2.4-2.8,4.4-4.3,5.7C269.3,59.3,267.8,60,266.3,60L266.3,60L266.3,60z
		 M264.3,63.8c6.3,0,12.3-6.8,14.9-11.9c2.7-5.3,3.2-11.7-2.7-11.7c-3.2,0-6.2,1.5-9.1,4.1c-2.2,1.9-4.4,4.7-5.9,7.7
		C258.4,58.2,258.7,63.8,264.3,63.8L264.3,63.8L264.3,63.8z M289.7,54.8h4.5c-1.2,2-4.3,5.2-7.5,5.2c-2.6,0-3.8-2.4-1.1-7.9
		c2.3-4.5,6.1-8.2,9.3-8.2c2.1,0,2.9,1.7,2.2,4l3.7-0.1c0.8-2.2,0.8-3.8,0.4-5c-0.6-1.6-2-2.6-4.6-2.6c-5.5,0-11.5,5.6-14.7,12
		c-2,4-2.4,6.8-1.7,8.8c0.6,2,2.1,2.9,4,2.9c1.2,0,2.5-0.2,3.9-0.9c1.5-0.7,2.7-1.7,3.7-2.8l-1.3,3h2.8l6-11.7h-7.7L289.7,54.8
		L289.7,54.8z M297.4,63.1h3.8l11.3-22.2h-3.8L297.4,63.1L297.4,63.1z M308.9,56.1c-2.1,4.1-1.5,7.7,3.8,7.7c5.3,0,9.4-3.5,11.3-7.2
		c1.4-2.8,1.3-5.3-1.3-6.3l-3.6-1.3c-1.1-0.4-1.1-0.6-1.2-0.9c-0.1-0.4,0-0.9,0.3-1.5c0.7-1.3,2.3-2.8,4.9-2.8c1.3,0,2,0.5,2.2,1.2
		c0.2,0.6,0.1,1.5-0.4,2.4l3.6,0c1.1-2.4,1.2-3.9,0.7-5c-0.4-1.2-1.8-2.2-4.5-2.2c-4.8,0-8.7,3.3-10.5,6.9c-1.4,2.8-1.3,5.1,1.4,6.1
		l3.1,1.1c0.6,0.2,1.4,0.4,1.6,1.3c0.1,0.5-0.1,1.1-0.3,1.5c-0.7,1.4-2.4,3.1-5.4,3.1c-2.9,0-3.1-1.8-1.9-4L308.9,56.1L308.9,56.1z
		 M327.8,63.1h3.7l9.4-18.5h5.5l1.9-3.7h-14.7l-1.9,3.7h5.5L327.8,63.1L327.8,63.1z M339.3,63.1h3.8l11.3-22.2h-3.8L339.3,63.1
		L339.3,63.1z M363.6,55.7c-0.4,0.7-1.3,1.8-2,2.4c-1.2,1.1-2.8,1.8-4.2,1.8c-2.6,0-3.8-2.5-1-8.1c2.8-5.6,6.5-8,9-8
		c2.2,0,2.9,1.4,2.1,3.9l3.7-0.2c0.8-2.2,0.9-3.7,0.5-4.9c-0.5-1.4-1.8-2.5-4.4-2.5c-6.9,0-12.4,7.2-14.6,11.6
		c-3.9,7.6-2.1,12.1,2.6,12.1c3.9,0,9.1-3,12-8.1L363.6,55.7L363.6,55.7z M370.5,56.1c-2.1,4.1-1.5,7.7,3.8,7.7
		c5.3,0,9.4-3.5,11.3-7.2c1.4-2.8,1.3-5.3-1.3-6.3l-3.6-1.3c-1.1-0.4-1.1-0.6-1.2-0.9c-0.1-0.4,0-0.9,0.3-1.5
		c0.7-1.3,2.3-2.8,4.9-2.8c1.3,0,2,0.5,2.2,1.2c0.2,0.6,0.1,1.5-0.4,2.4l3.6,0c1.1-2.4,1.2-3.9,0.7-5c-0.4-1.2-1.8-2.2-4.5-2.2
		c-4.8,0-8.7,3.3-10.5,6.9c-1.4,2.8-1.3,5.1,1.4,6.1l3.1,1.1c0.6,0.2,1.4,0.4,1.6,1.3c0.1,0.5-0.1,1.1-0.3,1.5
		c-0.7,1.4-2.4,3.1-5.4,3.1c-2.9,0-3.1-1.8-1.9-4L370.5,56.1L370.5,56.1z"/>
	<path class="st1" d="M66.5,25.7c-1.8,0.6-3.7,1.7-5.7,3.3c-3.9,3.1-7.2,7.5-10.2,13.2c-2.2,4.3-3.3,7.8-3.4,10.5
		c-0.8,0.2-1.6,0.3-2.4,0.3c-1.3,0-2.2-0.3-2.8-0.9c-0.7-0.6-1-1.7-1-3.2c0-2.8,1.1-6.4,3.4-10.9c2.9-5.7,6.3-10.1,10.2-13.2
		c3.2-2.5,6.1-3.8,8.9-3.8c1.3,0,2.2,0.2,2.7,0.7c0.4,0.3,0.6,0.9,0.6,1.8C66.8,24.2,66.7,24.9,66.5,25.7L66.5,25.7L66.5,25.7z"/>
	<path class="st0" d="M59.6,46c-0.9,1.6-3,4.1-4.6,5.4c-2.8,2.4-6.6,4.3-10.2,4.3c-3.8,0-6.4-2.1-6.4-6.7c0-3,1.1-7,3.7-12.1
		C48.7,24,57.4,18.5,63.5,18.5c3.9,0,5.9,1.8,5.9,5.1c0,1.2-0.3,2.5-0.8,4l8.8-0.5c1.2-3,1.7-5.5,1.7-7.6c0-1.4-0.2-2.6-0.6-3.7
		c-1.2-3.3-4.4-5.7-10.9-5.7C51,10,38.1,26.8,32.9,36.9c-3.3,6.5-4.8,12-4.8,16.3c0,7.5,4.4,11.6,11.7,11.6
		c9.4,0,21.8-6.9,28.6-18.7L59.6,46L59.6,46z"/>
	<path class="st1" d="M131.4,13.2l-26.8,52.6l2.3,0c-0.2,0.2-0.5,0.3-0.7,0.5c-5.1,3.5-10.8,5.2-17.1,5.2c-4,0-7.3-0.7-9.6-2.1
		c-1.2-0.7-2.2-1.7-3-2.7c1.8,0.5,4,0.8,6.4,0.8c6.3,0,12-1.7,17.1-5.2c4.8-3.3,8.7-7.8,11.6-13.5v0l18-35.5H131.4L131.4,13.2z"/>
	<path class="st0" d="M92.2,11.7l-18.4,36c-1.9,3.8-2.7,6.4-2.7,8.6c0,0.9,0.1,1.7,0.3,2.4c0.9,3.3,3.8,6,11.4,6
		c11.8,0,21.1-7,26.3-17.3l18.2-35.7h-9L101,45.9c-2.1,4.2-3.4,5.5-5,7c-2.4,2.2-5.5,3.8-9,3.8c-3.6,0-5.4-1.5-5.4-4.2
		c0-1.5,0.6-3.5,1.7-5.7l17.9-35L92.2,11.7L92.2,11.7z"/>
	<path class="st1" d="M203.5,27h-13.8l-1.6,3.1h-8.2l3.6-7.2h22c-0.4,0.6-0.7,1.3-1.1,1.9C204.1,25.6,203.8,26.3,203.5,27L203.5,27
		L203.5,27z"/>
	<path class="st1" d="M145.3,31.3l2.2-4.3l2.6,0c0.1-0.2,0.3-0.5,0.4-0.7c0.5-1,0.7-1.9,0.7-2.7c0-0.3,0-0.5-0.1-0.6c0,0,0,0,0,0
		c-0.3-0.1-0.7-0.1-1.4-0.1h0l-8.4,0l-4.6,9l5.5,0C143.2,32,144.3,31.8,145.3,31.3L145.3,31.3L145.3,31.3z"/>
	<path class="st0" d="M108.9,63.1l9,0l10.4-20.4l7.8,0.1c3.1,0,4.5,1.5,4.5,4.1c0,0.1,0,0.1,0,0.1c0,0.9-0.3,1.8-0.6,2.8
		c0,0,0,0,0,0c0,0.1-0.1,0.2-0.1,0.3c0,0,0,0.1,0,0.1c-0.5,1.7-1.4,3.5-2.2,5.2c-1.2,2.6-2.5,5.2-2.7,7.6h9.2c0-1.2,0.5-3.3,1.4-5.4
		l3.9-9c1.1-2.5,1.5-4.1,1.5-5.3c0-0.6-0.1-1-0.2-1.5c-0.5-1.7-2-2.9-4.2-3.1c6-0.7,12.4-5.7,15.9-12.6c1.3-2.6,2-5.1,2-7.3
		c0-4.2-2.7-7.1-8.4-7.1c-0.3,0-0.7,0-1,0h-20L108.9,63.1L108.9,63.1z M132.5,34.6l7.2-14.3l10,0c2.4,0,2.9,0.4,3.5,1.1
		c0.5,0.6,0.7,1.4,0.7,2.3c0,1.2-0.4,2.5-1,3.9c-1.9,3.8-6.2,7.1-10.6,7.1c0,0-0.1,0-0.1,0L132.5,34.6L132.5,34.6z"/>
	<polygon class="st0" points="151,63.1 160.1,63.1 171.3,41.1 190.3,41.1 194.6,32.7 175.6,32.7 181.9,20.3 204.3,20.3 208.7,11.7 
		177.2,11.7 151,63.1 	"/>
	<path class="st0" d="M194.7,46.9c-1.6,3.1-2.5,6.2-2.5,8.8c0,5.3,3.6,9.1,12,9.1c12.8,0,22.5-8.1,26.9-16.8c1.3-2.5,2-5,2-7.2
		c0-3.3-1.7-6-5.5-7.4l-8.8-3.1c-2.6-0.9-2.7-1.4-2.9-2.2c0,0,0,0,0,0c0,0,0,0,0,0c-0.1-0.3-0.1-0.6-0.1-0.9c0-0.7,0.2-1.6,0.7-2.5
		c1.5-3,5.5-6.5,11.7-6.5c3,0,4.7,1.2,5.2,2.7c0.2,0.5,0.2,1,0.2,1.6c0,1.2-0.3,2.5-1,4l8.6,0.1c1.6-3.5,2.2-6.2,2.2-8.3
		c0-1.3-0.2-2.4-0.7-3.4c-1.1-2.7-4.5-5.1-10.9-5.1c-11.6,0-20.8,7.6-25.1,16.1c-1.3,2.6-2.1,5-2.1,7.1c0,3.2,1.7,5.7,5.6,7l7.6,2.6
		c0.2,0.1,0.4,0.1,0.6,0.2c0,0,0,0,0.1,0c0,0,0,0,0,0c1.3,0.4,2.9,1,3.2,2.8c0,0.2,0,0.4,0,0.6c0,1-0.3,2-0.7,2.8
		c-1.7,3.3-5.7,7.1-12.8,7.1c-4.5,0-6.3-1.8-6.3-4.4c0-1.4,0.5-3.1,1.5-4.9L194.7,46.9L194.7,46.9z"/>
	<path class="st1" d="M86.4,17.3l-8.6,16.8l-6.8,0.4l1.2-3.7c0.1-0.3,0.2-0.6,0.3-0.9l6.8-0.4L80,28c1.2-3.2,1.9-6.1,1.9-8.5
		c0-1.6-0.3-3.2-0.8-4.6c-0.3-1-0.8-1.8-1.4-2.6c1.1,0.3,2.1,0.7,2.9,1.2C84.3,14.4,85.5,15.7,86.4,17.3L86.4,17.3L86.4,17.3z"/>
	<path class="st1" d="M71,47.6l-0.3,0c-3.5,6-8.2,10.9-14.2,14.6c-2.7,1.7-5.5,3-8.4,3.9c-2.9,0.9-5.7,1.4-8.3,1.4
		c-1.9,0-3.7-0.2-5.2-0.7c0.3,0.4,0.6,0.7,1,1.1c2.6,2.5,6,3.8,10.4,3.8c2.6,0,5.4-0.5,8.3-1.4c2.9-0.9,5.7-2.2,8.4-3.9
		c2.5-1.5,4.7-3.3,6.8-5.2c-0.2-0.5-0.4-1-0.6-1.6l0,0l0,0c-0.3-1-0.4-2.1-0.4-3.1C68.5,53.9,69.3,51,71,47.6L71,47.6L71,47.6z"/>
	<path class="st1" d="M103.5,13.2l8.3,0L91.8,52c-0.2,0.3-0.3,0.6-0.4,0.9C90,53.7,88.5,54,87,54c-1.2,0-2-0.2-2.4-0.5
		c-0.2-0.2-0.4-0.5-0.4-1.1c0-1.1,0.5-2.6,1.4-4.5L103.5,13.2L103.5,13.2z"/>
	<path class="st1" d="M202.2,34.2h-5.4l-4.9,9.6h-19.1l-11.2,22H155l-2,3.9l0-2.5c0-0.4,0.1-0.9,0.2-1.5l-6.4,0h-8.1
		c-0.1,0.4-0.1,0.8-0.2,1.2l-0.2,2.9H153h14.9l11.2-22h12.3c0.3-0.7,0.6-1.4,1-2.1l0.7-1.5l6.8,0.1l3.4-6.6
		C202.6,36.7,202.3,35.5,202.2,34.2L202.2,34.2L202.2,34.2z"/>
	<path class="st1" d="M218.9,47.9l-3.2-1.1c-2.4-0.8-4.3-2.1-5.5-3.7c-0.1-0.1-0.1-0.2-0.2-0.2l7.1,2.5c0,0,0,0,0.1,0l0,0l0.4,0.1
		c0.1,0,0.2,0.1,0.3,0.1c0.8,0.3,1.3,0.5,1.3,0.7c0,0,0,0.1,0,0.2C219.2,46.9,219.1,47.4,218.9,47.9L218.9,47.9L218.9,47.9z"/>
	<path class="st1" d="M205.7,48.4l8.3,0.1l-2.1,3.8c-0.2,0.4-0.4,0.7-0.5,1c-1,0.2-2,0.3-3.1,0.3c-1.6,0-2.7-0.2-3.3-0.7
		c-0.3-0.2-0.4-0.6-0.4-1.1C204.6,51,205,49.8,205.7,48.4L205.7,48.4L205.7,48.4z"/>
	<path class="st1" d="M233.9,34.9C233.9,35,233.9,35,233.9,34.9c1.2,1.7,1.8,3.7,1.8,6c0,2.6-0.8,5.4-2.3,8.4
		c-2.6,5.1-6.3,9.3-11.2,12.6c-5.5,3.7-11.5,5.6-18.1,5.6c-2.4,0-4.6-0.3-6.5-0.9c0.5,0.7,1.1,1.2,1.7,1.8c2.6,2.1,6.2,3.2,10.9,3.2
		c6.6,0,12.6-1.9,18.1-5.6c4.8-3.3,8.6-7.5,11.2-12.6c1.5-3,2.3-5.8,2.3-8.4c0-2.3-0.6-4.3-1.8-6c-1.3-1.8-3.1-3-5.5-3.9L233.9,34.9
		L233.9,34.9z"/>
	<path class="st1" d="M230.1,25.9c-0.7,0.3-1.4,0.6-2,1c-1.3,0.8-2.3,1.9-3,3l-5.4-1.9c-0.6-0.2-1-0.4-1.3-0.5c0,0,0,0,0-0.1
		c0-0.3,0.1-0.7,0.4-1.3c0.7-1.3,1.7-2.4,3.2-3.4c1.8-1.1,3.8-1.7,6.2-1.7c1,0,1.7,0.2,2.3,0.5c0.3,0.1,0.4,0.3,0.5,0.5
		c0.1,0.2,0.1,0.4,0.1,0.7c0,0.8-0.3,1.8-0.8,2.9L230.1,25.9L230.1,25.9z"/>
	<path class="st1" d="M244.2,12.3c0.4,0.6,0.8,1.2,1,1.8c0.6,1.3,0.9,2.8,0.9,4.4c0,2.6-0.8,5.7-2.4,9.4l-0.7,1.6l-6.4-0.1
		c0,0.1-0.1,0.2-0.1,0.3l-1.7,3.7l14.5,0.2l0.7-1.6c1.6-3.6,2.4-6.8,2.4-9.4c0-1.6-0.3-3-0.9-4.4c-0.9-2-2.4-3.7-4.7-4.9
		C245.9,12.9,245.1,12.6,244.2,12.3L244.2,12.3L244.2,12.3z"/>
	<path class="st1" d="M210.9,13.2h3.5c-2.8,2-5.2,4.4-7.1,7.1L210.9,13.2L210.9,13.2z"/>
	<path class="st1" d="M165.8,13.5c1.8,0.4,3.4,1.2,4.6,2.3c0.4,0.4,0.8,0.8,1.1,1.3l-24.7,48.5l0-2.5c0-1.2,0.4-2.6,1.2-4.4l0,0
		l3.9-9c1.1-2.6,1.7-4.7,1.7-6.3c0-0.8-0.1-1.5-0.3-2.3c-0.2-0.5-0.4-1-0.6-1.5c1.5-0.7,3-1.7,4.5-2.8c3.2-2.6,5.8-5.7,7.7-9.5
		c1.6-3,2.3-5.9,2.3-8.5C167.2,16.7,166.7,15,165.8,13.5L165.8,13.5L165.8,13.5z"/>
	<path class="st1" d="M137.4,49.5l-1.3,0l-10.4,20.4l-15,0l2.1-4.1l6.7,0l10.4-20.4l6.2,0h0c0.8,0,1.3,0.1,1.6,0.4
		c0.2,0.2,0.3,0.5,0.3,1.1l0,0.1c0,0.3-0.2,1-0.5,2.1l0,0L137.4,49.5L137.4,49.5z"/>
</g>
</svg>
