<?xml version="1.0" encoding="utf-8"?>
<!-- Generator: Adobe Illustrator 28.0.0, SVG Export Plug-In . SVG Version: 6.00 Build 0)  -->
<svg version="1.1" id="Laag_1" xmlns="http://www.w3.org/2000/svg" xmlns:xlink="http://www.w3.org/1999/xlink" x="0px" y="0px"
	 viewBox="0 0 224.5 39.5" style="enable-background:new 0 0 224.5 39.5;" xml:space="preserve">
<style type="text/css">
	.st0{fill:#706F6F;}
	.st1{fill:#FFFFFF;}
	.st2{fill:#D9D9D9;}
</style>
<rect x="71.8" y="168.2" class="st0" width="417.5" height="226.8"/>
<g>
	<path class="st1" d="M131.9,33.5h7.8l1.2-2.4h-5.4l5.8-11.4H139L131.9,33.5L131.9,33.5z M147.3,31.6c-2.7,0-1.2-3.7-0.6-4.9
		c1.7-3.5,4.1-5,5.6-5s2.3,1.5,0.6,5c-0.7,1.5-1.7,2.7-2.7,3.5C149.2,31.2,148.3,31.6,147.3,31.6L147.3,31.6L147.3,31.6z M146.1,34
		c3.9,0,7.6-4.2,9.2-7.4c1.7-3.3,2-7.2-1.7-7.2c-2,0-3.8,0.9-5.6,2.5c-1.4,1.2-2.7,2.9-3.6,4.8C142.5,30.5,142.6,34,146.1,34
		L146.1,34L146.1,34z M161.8,28.4h2.8c-0.7,1.2-2.7,3.2-4.6,3.2c-1.6,0-2.4-1.5-0.7-4.9c1.4-2.8,3.8-5.1,5.8-5.1
		c1.3,0,1.8,1.1,1.4,2.5l2.3-0.1c0.5-1.4,0.5-2.4,0.2-3.1c-0.4-1-1.2-1.6-2.8-1.6c-3.4,0-7.1,3.5-9.1,7.4c-1.2,2.5-1.5,4.2-1.1,5.4
		c0.4,1.2,1.3,1.8,2.5,1.8c0.7,0,1.5-0.1,2.4-0.6c0.9-0.4,1.7-1.1,2.3-1.7l-0.8,1.9h1.7l3.7-7.2H163L161.8,28.4L161.8,28.4z
		 M166.6,33.5h2.4l7-13.7h-2.4L166.6,33.5L166.6,33.5z M173.7,29.2c-1.3,2.5-0.9,4.8,2.4,4.8s5.8-2.2,7-4.5c0.9-1.7,0.8-3.3-0.8-3.9
		l-2.2-0.8c-0.7-0.2-0.7-0.4-0.7-0.6c-0.1-0.2,0-0.6,0.2-0.9c0.4-0.8,1.4-1.7,3-1.7c0.8,0,1.2,0.3,1.4,0.7c0.1,0.4,0.1,0.9-0.2,1.5
		h2.2c0.7-1.5,0.7-2.4,0.4-3.1c-0.2-0.7-1.1-1.4-2.8-1.4c-3,0-5.4,2-6.5,4.3c-0.9,1.7-0.8,3.2,0.9,3.8l1.9,0.7
		c0.4,0.1,0.9,0.2,1,0.8c0.1,0.3-0.1,0.7-0.2,0.9c-0.4,0.9-1.5,1.9-3.3,1.9c-1.8,0-1.9-1.1-1.2-2.5L173.7,29.2L173.7,29.2z
		 M185.4,33.5h2.3l5.8-11.4h3.4l1.2-2.3H189l-1.2,2.3h3.4L185.4,33.5L185.4,33.5z M192.5,33.5h2.4l7-13.7h-2.4L192.5,33.5
		L192.5,33.5z M207.5,29c-0.2,0.4-0.8,1.1-1.2,1.5c-0.7,0.7-1.7,1.1-2.6,1.1c-1.6,0-2.4-1.5-0.6-5s4-4.9,5.6-4.9
		c1.4,0,1.8,0.9,1.3,2.4l2.3-0.1c0.5-1.4,0.6-2.3,0.3-3c-0.3-0.9-1.1-1.5-2.7-1.5c-4.3,0-7.7,4.5-9,7.2c-2.4,4.7-1.3,7.5,1.6,7.5
		c2.4,0,5.6-1.9,7.4-5L207.5,29L207.5,29z M211.8,29.2c-1.3,2.5-0.9,4.8,2.4,4.8s5.8-2.2,7-4.5c0.9-1.7,0.8-3.3-0.8-3.9l-2.2-0.8
		c-0.7-0.2-0.7-0.4-0.7-0.6c-0.1-0.2,0-0.6,0.2-0.9c0.4-0.8,1.4-1.7,3-1.7c0.8,0,1.2,0.3,1.4,0.7c0.1,0.4,0.1,0.9-0.2,1.5h2.2
		c0.7-1.5,0.7-2.4,0.4-3.1c-0.2-0.7-1.1-1.4-2.8-1.4c-3,0-5.4,2-6.5,4.3c-0.9,1.7-0.8,3.2,0.9,3.8l1.9,0.7c0.4,0.1,0.9,0.2,1,0.8
		c0.1,0.3-0.1,0.7-0.2,0.9c-0.4,0.9-1.5,1.9-3.3,1.9c-1.8,0-1.9-1.1-1.2-2.5L211.8,29.2L211.8,29.2z"/>
	<path class="st2" d="M23.8,10.4c-1.1,0.4-2.3,1.1-3.5,2c-2.4,1.9-4.5,4.6-6.3,8.2c-1.4,2.7-2,4.8-2.1,6.5c-0.5,0.1-1,0.2-1.5,0.2
		c-0.8,0-1.4-0.2-1.7-0.6c-0.4-0.4-0.6-1.1-0.6-2c0-1.7,0.7-4,2.1-6.7c1.8-3.5,3.9-6.2,6.3-8.2c2-1.5,3.8-2.4,5.5-2.4
		c0.8,0,1.4,0.1,1.7,0.4c0.2,0.2,0.4,0.6,0.4,1.1C23.9,9.5,23.9,9.9,23.8,10.4L23.8,10.4L23.8,10.4z"/>
	<path class="st1" d="M19.5,23c-0.6,1-1.9,2.5-2.8,3.3c-1.7,1.5-4.1,2.7-6.3,2.7c-2.4,0-4-1.3-4-4.1c0-1.9,0.7-4.3,2.3-7.5
		c4.1-8,9.5-11.4,13.2-11.4c2.4,0,3.6,1.1,3.6,3.2c0,0.7-0.2,1.5-0.5,2.5l5.4-0.3c0.7-1.9,1.1-3.4,1.1-4.7c0-0.9-0.1-1.6-0.4-2.3
		c-0.7-2-2.7-3.5-6.7-3.5C14.2,0.7,6.2,11.1,3,17.3c-2,4-3,7.4-3,10.1c0,4.6,2.7,7.2,7.2,7.2c5.8,0,13.5-4.3,17.7-11.6L19.5,23
		L19.5,23z"/>
	<path class="st2" d="M63.9,2.7L47.3,35.2h1.4c-0.1,0.1-0.3,0.2-0.4,0.3c-3.2,2.2-6.7,3.2-10.6,3.2c-2.5,0-4.5-0.4-5.9-1.3
		c-0.7-0.4-1.4-1.1-1.9-1.7c1.1,0.3,2.5,0.5,4,0.5c3.9,0,7.4-1.1,10.6-3.2c3-2,5.4-4.8,7.2-8.4l0,0l11.1-22L63.9,2.7L63.9,2.7z"/>
	<path class="st1" d="M39.6,1.7L28.3,24c-1.2,2.4-1.7,4-1.7,5.3c0,0.6,0.1,1.1,0.2,1.5c0.6,2,2.4,3.7,7.1,3.7
		c7.3,0,13.1-4.3,16.3-10.7L61.4,1.7h-5.6L45.1,22.9c-1.3,2.6-2.1,3.4-3.1,4.3c-1.5,1.4-3.4,2.4-5.6,2.4c-2.2,0-3.3-0.9-3.3-2.6
		c0-0.9,0.4-2.2,1.1-3.5L45.2,1.8L39.6,1.7L39.6,1.7z"/>
	<path class="st2" d="M108.5,11.2H100l-1,1.9h-5.1l2.2-4.5h13.6c-0.2,0.4-0.4,0.8-0.7,1.2C108.9,10.3,108.7,10.8,108.5,11.2
		L108.5,11.2L108.5,11.2z"/>
	<path class="st2" d="M72.5,13.9l1.4-2.7h1.6c0.1-0.1,0.2-0.3,0.2-0.4c0.3-0.6,0.4-1.2,0.4-1.7c0-0.2,0-0.3-0.1-0.4l0,0
		c-0.2-0.1-0.4-0.1-0.9-0.1l0,0H70l-2.8,5.6h3.4C71.2,14.3,71.9,14.2,72.5,13.9L72.5,13.9L72.5,13.9z"/>
	<path class="st1" d="M50,33.5h5.6L62,20.9l4.8,0.1c1.9,0,2.8,0.9,2.8,2.5c0,0.1,0,0.1,0,0.1c0,0.6-0.2,1.1-0.4,1.7l0,0
		c0,0.1-0.1,0.1-0.1,0.2v0.1c-0.3,1.1-0.9,2.2-1.4,3.2c-0.7,1.6-1.5,3.2-1.7,4.7h5.7c0-0.7,0.3-2,0.9-3.3l2.4-5.6
		C75.8,23,76,22,76,21.3c0-0.4-0.1-0.6-0.1-0.9c-0.3-1.1-1.2-1.8-2.6-1.9c3.7-0.4,7.7-3.5,9.8-7.8c0.8-1.6,1.2-3.2,1.2-4.5
		c0-2.6-1.7-4.4-5.2-4.4c-0.2,0-0.4,0-0.6,0H66.2L50,33.5L50,33.5z M64.6,15.9L69,7.1h6.2c1.5,0,1.8,0.2,2.2,0.7
		c0.3,0.4,0.4,0.9,0.4,1.4c0,0.7-0.2,1.5-0.6,2.4C76,13.9,73.4,16,70.6,16h-0.1L64.6,15.9L64.6,15.9z"/>
	<polygon class="st1" points="76,33.5 81.6,33.5 88.6,19.9 100.3,19.9 103,14.7 91.2,14.7 95.1,7.1 109,7.1 111.7,1.7 92.2,1.7 	"/>
	<path class="st1" d="M103.1,23.5c-1,1.9-1.5,3.8-1.5,5.4c0,3.3,2.2,5.6,7.4,5.6c7.9,0,13.9-5,16.6-10.4c0.8-1.5,1.2-3.1,1.2-4.5
		c0-2-1.1-3.7-3.4-4.6l-5.4-1.9c-1.6-0.6-1.7-0.9-1.8-1.4l0,0l0,0c-0.1-0.2-0.1-0.4-0.1-0.6c0-0.4,0.1-1,0.4-1.5
		c0.9-1.9,3.4-4,7.2-4c1.9,0,2.9,0.7,3.2,1.7c0.1,0.3,0.1,0.6,0.1,1c0,0.7-0.2,1.5-0.6,2.5l5.3,0.1c1-2.2,1.4-3.8,1.4-5.1
		c0-0.8-0.1-1.5-0.4-2.1C132.1,2,130,0.6,126,0.6c-7.2,0-12.9,4.7-15.5,10c-0.8,1.6-1.3,3.1-1.3,4.4c0,2,1.1,3.5,3.5,4.3l4.7,1.6
		c0.1,0.1,0.2,0.1,0.4,0.1c0,0,0,0,0.1,0l0,0c0.8,0.2,1.8,0.6,2,1.7c0,0.1,0,0.2,0,0.4c0,0.6-0.2,1.2-0.4,1.7
		c-1.1,2-3.5,4.4-7.9,4.4c-2.8,0-3.9-1.1-3.9-2.7c0-0.9,0.3-1.9,0.9-3L103.1,23.5L103.1,23.5z"/>
	<path class="st2" d="M36.1,5.2l-5.3,10.4l-4.2,0.2l0.7-2.3c0.1-0.2,0.1-0.4,0.2-0.6l4.2-0.2l0.4-0.9c0.7-2,1.2-3.8,1.2-5.3
		c0-1-0.2-2-0.5-2.8c-0.2-0.6-0.5-1.1-0.9-1.6c0.7,0.2,1.3,0.4,1.8,0.7C34.8,3.4,35.5,4.2,36.1,5.2L36.1,5.2L36.1,5.2z"/>
	<path class="st2" d="M26.5,23.9h-0.2c-2.2,3.7-5.1,6.7-8.8,9c-1.7,1.1-3.4,1.9-5.2,2.4c-1.8,0.6-3.5,0.9-5.1,0.9
		c-1.2,0-2.3-0.1-3.2-0.4c0.2,0.2,0.4,0.4,0.6,0.7c1.6,1.5,3.7,2.4,6.4,2.4c1.6,0,3.3-0.3,5.1-0.9c1.8-0.6,3.5-1.4,5.2-2.4
		c1.5-0.9,2.9-2,4.2-3.2c-0.1-0.3-0.2-0.6-0.4-1l0,0l0,0c-0.2-0.6-0.2-1.3-0.2-1.9C25,27.8,25.5,26,26.5,23.9L26.5,23.9L26.5,23.9z"
		/>
	<path class="st2" d="M46.6,2.7h5.1l-12.4,24c-0.1,0.2-0.2,0.4-0.2,0.6c-0.9,0.5-1.8,0.7-2.7,0.7c-0.7,0-1.2-0.1-1.5-0.3
		c-0.1-0.1-0.2-0.3-0.2-0.7c0-0.7,0.3-1.6,0.9-2.8L46.6,2.7L46.6,2.7z"/>
	<path class="st2" d="M107.7,15.7h-3.3l-3,5.9H89.5l-6.9,13.6h-4.1l-1.2,2.4v-1.5c0-0.2,0.1-0.6,0.1-0.9h-4h-5
		c-0.1,0.2-0.1,0.5-0.1,0.7l-0.1,1.8h9.1h9.2l6.9-13.6h7.6c0.2-0.4,0.4-0.9,0.6-1.3l0.4-0.9l4.2,0.1l2.1-4.1
		C107.9,17.2,107.8,16.5,107.7,15.7L107.7,15.7L107.7,15.7z"/>
	<path class="st2" d="M118,24.1l-2-0.7c-1.5-0.5-2.7-1.3-3.4-2.3c-0.1-0.1-0.1-0.1-0.1-0.1l4.4,1.5c0,0,0,0,0.1,0l0,0l0.2,0.1
		c0.1,0,0.1,0.1,0.2,0.1c0.5,0.2,0.8,0.3,0.8,0.4c0,0,0,0.1,0,0.1C118.2,23.5,118.1,23.8,118,24.1L118,24.1L118,24.1z"/>
	<path class="st2" d="M109.9,24.4l5.1,0.1l-1.3,2.4c-0.1,0.2-0.2,0.4-0.3,0.6c-0.6,0.1-1.2,0.2-1.9,0.2c-1,0-1.7-0.1-2-0.4
		c-0.2-0.1-0.2-0.4-0.2-0.7C109.2,26,109.4,25.3,109.9,24.4L109.9,24.4L109.9,24.4z"/>
	<path class="st2" d="M127.3,16.1C127.3,16.1,127.3,16.1,127.3,16.1c0.7,1.1,1.1,2.3,1.1,3.7c0,1.6-0.5,3.3-1.4,5.2
		c-1.6,3.2-3.9,5.8-6.9,7.8c-3.4,2.3-7.1,3.5-11.2,3.5c-1.5,0-2.8-0.2-4-0.6c0.3,0.4,0.7,0.7,1.1,1.1c1.6,1.3,3.8,2,6.7,2
		c4.1,0,7.8-1.2,11.2-3.5c3-2,5.3-4.6,6.9-7.8c0.9-1.9,1.4-3.6,1.4-5.2c0-1.4-0.4-2.7-1.1-3.7c-0.8-1.1-1.9-1.9-3.4-2.4L127.3,16.1
		L127.3,16.1z"/>
	<path class="st2" d="M124.9,10.5c-0.4,0.2-0.9,0.4-1.2,0.6c-0.8,0.5-1.4,1.2-1.9,1.9l-3.3-1.2c-0.4-0.1-0.6-0.2-0.8-0.3
		c0,0,0,0,0-0.1c0-0.2,0.1-0.4,0.2-0.8c0.4-0.8,1.1-1.5,2-2.1c1.1-0.7,2.4-1.1,3.8-1.1c0.6,0,1.1,0.1,1.4,0.3
		c0.2,0.1,0.2,0.2,0.3,0.3c0.1,0.1,0.1,0.2,0.1,0.4c0,0.5-0.2,1.1-0.5,1.8L124.9,10.5L124.9,10.5z"/>
	<path class="st2" d="M133.7,2.1c0.2,0.4,0.5,0.7,0.6,1.1c0.4,0.8,0.6,1.7,0.6,2.7c0,1.6-0.5,3.5-1.5,5.8l-0.4,1l-4-0.1
		c0,0.1-0.1,0.1-0.1,0.2l-1.1,2.3l9,0.1l0.4-1c1-2.2,1.5-4.2,1.5-5.8c0-1-0.2-1.9-0.6-2.7c-0.6-1.2-1.5-2.3-2.9-3
		C134.7,2.5,134.2,2.3,133.7,2.1L133.7,2.1L133.7,2.1z"/>
	<path class="st2" d="M113.1,2.7h2.2c-1.7,1.2-3.2,2.7-4.4,4.4L113.1,2.7L113.1,2.7z"/>
	<path class="st2" d="M85.2,2.8c1.1,0.2,2.1,0.7,2.8,1.4c0.2,0.2,0.5,0.5,0.7,0.8l-15.3,30v-1.5c0-0.7,0.2-1.6,0.7-2.7l0,0l2.4-5.6
		c0.7-1.6,1.1-2.9,1.1-3.9c0-0.5-0.1-0.9-0.2-1.4c-0.1-0.3-0.2-0.6-0.4-0.9c0.9-0.4,1.9-1.1,2.8-1.7c2-1.6,3.6-3.5,4.8-5.9
		c1-1.9,1.4-3.6,1.4-5.3C86,4.8,85.7,3.8,85.2,2.8L85.2,2.8L85.2,2.8z"/>
	<path class="st2" d="M67.6,25.1h-0.8l-6.4,12.6h-9.3l1.3-2.5h4.1L63,22.6h3.8l0,0c0.5,0,0.8,0.1,1,0.2c0.1,0.1,0.2,0.3,0.2,0.7v0.1
		c0,0.2-0.1,0.6-0.3,1.3l0,0L67.6,25.1L67.6,25.1z"/>
</g>
<g>
	<path class="st1" d="M302.2,391.3h10.7l1.7-3.2h-7.4l8-15.6h-3.1L302.2,391.3L302.2,391.3z M323.2,388.6c-3.7,0-1.7-5.1-0.8-6.8
		c2.4-4.7,5.7-6.9,7.7-6.9s3.1,2.1,0.8,6.9c-1,2-2.4,3.7-3.6,4.8C325.8,388,324.5,388.6,323.2,388.6L323.2,388.6L323.2,388.6z
		 M321.5,391.9c5.3,0,10.4-5.8,12.6-10.1c2.3-4.5,2.7-9.9-2.3-9.9c-2.7,0-5.2,1.3-7.7,3.5c-1.9,1.6-3.7,4-5,6.5
		C316.5,387.1,316.8,391.9,321.5,391.9L321.5,391.9L321.5,391.9z M343,384.2h3.8c-1,1.7-3.6,4.4-6.3,4.4c-2.2,0-3.2-2-0.9-6.7
		c1.9-3.8,5.2-6.9,7.9-6.9c1.8,0,2.5,1.4,1.9,3.4l3.1-0.1c0.7-1.9,0.7-3.2,0.3-4.2c-0.5-1.4-1.7-2.2-3.9-2.2
		c-4.7,0-9.7,4.7-12.4,10.2c-1.7,3.4-2,5.8-1.4,7.4c0.5,1.7,1.8,2.5,3.4,2.5c1,0,2.1-0.2,3.3-0.8c1.3-0.6,2.3-1.4,3.1-2.4l-1.1,2.5
		h2.4l5.1-9.9h-6.5L343,384.2L343,384.2z M349.5,391.3h3.2l9.6-18.8h-3.2L349.5,391.3L349.5,391.3z M359.3,385.3
		c-1.8,3.5-1.3,6.5,3.2,6.5s8-3,9.6-6.1c1.2-2.4,1.1-4.5-1.1-5.3l-3-1.1c-0.9-0.3-0.9-0.5-1-0.8c-0.1-0.3,0-0.8,0.3-1.3
		c0.6-1.1,1.9-2.4,4.1-2.4c1.1,0,1.7,0.4,1.9,1c0.2,0.5,0.1,1.3-0.3,2h3c0.9-2,1-3.3,0.6-4.2c-0.3-1-1.5-1.9-3.8-1.9
		c-4.1,0-7.4,2.8-8.9,5.8c-1.2,2.4-1.1,4.3,1.2,5.2l2.6,0.9c0.5,0.2,1.2,0.3,1.4,1.1c0.1,0.4-0.1,0.9-0.3,1.3
		c-0.6,1.2-2,2.6-4.6,2.6c-2.5,0-2.6-1.5-1.6-3.4L359.3,385.3L359.3,385.3z M375.3,391.3h3.1l8-15.7h4.7l1.6-3.1h-12.4l-1.6,3.1h4.7
		L375.3,391.3L375.3,391.3z M385,391.3h3.2l9.6-18.8h-3.2L385,391.3L385,391.3z M405.6,385c-0.3,0.6-1.1,1.5-1.7,2
		c-1,0.9-2.4,1.5-3.6,1.5c-2.2,0-3.2-2.1-0.8-6.9s5.5-6.8,7.6-6.8c1.9,0,2.5,1.2,1.8,3.3l3.1-0.2c0.7-1.9,0.8-3.1,0.4-4.1
		c-0.4-1.2-1.5-2.1-3.7-2.1c-5.8,0-10.5,6.1-12.4,9.8c-3.3,6.4-1.8,10.2,2.2,10.2c3.3,0,7.7-2.5,10.2-6.9H405.6L405.6,385z
		 M411.4,385.3c-1.8,3.5-1.3,6.5,3.2,6.5s8-3,9.6-6.1c1.2-2.4,1.1-4.5-1.1-5.3l-3-1.1c-0.9-0.3-0.9-0.5-1-0.8
		c-0.1-0.3,0-0.8,0.3-1.3c0.6-1.1,1.9-2.4,4.1-2.4c1.1,0,1.7,0.4,1.9,1c0.2,0.5,0.1,1.3-0.3,2h3c0.9-2,1-3.3,0.6-4.2
		c-0.3-1-1.5-1.9-3.8-1.9c-4.1,0-7.4,2.8-8.9,5.8c-1.2,2.4-1.1,4.3,1.2,5.2l2.6,0.9c0.5,0.2,1.2,0.3,1.4,1.1
		c0.1,0.4-0.1,0.9-0.3,1.3c-0.6,1.2-2,2.6-4.6,2.6c-2.5,0-2.6-1.5-1.6-3.4L411.4,385.3L411.4,385.3z"/>
	<path class="st2" d="M154.1,359.6c-1.5,0.5-3.1,1.4-4.8,2.8c-3.3,2.6-6.1,6.3-8.6,11.2c-1.9,3.6-2.8,6.6-2.9,8.9
		c-0.7,0.2-1.4,0.3-2,0.3c-1.1,0-1.9-0.3-2.4-0.8c-0.6-0.5-0.8-1.4-0.8-2.7c0-2.4,0.9-5.4,2.9-9.2c2.5-4.8,5.3-8.5,8.6-11.2
		c2.7-2.1,5.2-3.2,7.5-3.2c1.1,0,1.9,0.2,2.3,0.6c0.3,0.3,0.5,0.8,0.5,1.5C154.4,358.3,154.3,358.9,154.1,359.6L154.1,359.6
		L154.1,359.6z"/>
	<path class="st1" d="M148.3,376.8c-0.8,1.4-2.5,3.5-3.9,4.6c-2.4,2-5.6,3.6-8.6,3.6c-3.2,0-5.4-1.8-5.4-5.7c0-2.5,0.9-5.9,3.1-10.2
		c5.6-10.9,12.9-15.6,18.1-15.6c3.3,0,5,1.5,5,4.3c0,1-0.3,2.1-0.7,3.4l7.4-0.4c1-2.5,1.4-4.7,1.4-6.4c0-1.2-0.2-2.2-0.5-3.1
		c-1-2.8-3.7-4.8-9.2-4.8c-14-0.1-25,14.1-29.4,22.7c-2.8,5.5-4.1,10.2-4.1,13.8c0,6.3,3.7,9.8,9.9,9.8c8,0,18.4-5.8,24.2-15.8
		L148.3,376.8L148.3,376.8z"/>
	<path class="st2" d="M209.1,349l-22.7,44.5h1.9c-0.2,0.2-0.4,0.3-0.6,0.4c-4.3,3-9.1,4.4-14.5,4.4c-3.4,0-6.2-0.6-8.1-1.8
		c-1-0.6-1.9-1.4-2.5-2.3c1.5,0.4,3.4,0.7,5.4,0.7c5.3,0,10.2-1.4,14.5-4.4c4.1-2.8,7.4-6.6,9.8-11.4l0,0l15.2-30L209.1,349
		L209.1,349z"/>
	<path class="st1" d="M175.9,347.8l-15.6,30.5c-1.6,3.2-2.3,5.4-2.3,7.3c0,0.8,0.1,1.4,0.3,2c0.8,2.8,3.2,5.1,9.6,5.1
		c10,0,17.9-5.9,22.3-14.6l15.4-30.2H198l-14.6,28.9c-1.8,3.6-2.9,4.7-4.2,5.9c-2,1.9-4.7,3.2-7.6,3.2c-3,0-4.6-1.3-4.6-3.6
		c0-1.3,0.5-3,1.4-4.8l15.1-29.6L175.9,347.8L175.9,347.8z"/>
	<path class="st2" d="M270.1,360.7h-11.7l-1.4,2.6h-6.9l3-6.1h18.6c-0.3,0.5-0.6,1.1-0.9,1.6C270.6,359.5,270.3,360.1,270.1,360.7
		L270.1,360.7L270.1,360.7z"/>
	<path class="st2" d="M220.8,364.3l1.9-3.6h2.2c0.1-0.2,0.3-0.4,0.3-0.6c0.4-0.8,0.6-1.6,0.6-2.3c0-0.3,0-0.4-0.1-0.5l0,0
		c-0.3-0.1-0.6-0.1-1.2-0.1l0,0h-7.1l-3.9,7.6h4.7C219,364.9,220,364.8,220.8,364.3L220.8,364.3L220.8,364.3z"/>
	<path class="st1" d="M190,391.3h7.6l8.8-17.3l6.6,0.1c2.6,0,3.8,1.3,3.8,3.5c0,0.1,0,0.1,0,0.1c0,0.8-0.3,1.5-0.5,2.4l0,0
		c0,0.1-0.1,0.2-0.1,0.3v0.1c-0.4,1.4-1.2,3-1.9,4.4c-1,2.2-2.1,4.4-2.3,6.4h7.8c0-1,0.4-2.8,1.2-4.6l3.3-7.6
		c0.9-2.1,1.3-3.5,1.3-4.5c0-0.5-0.1-0.8-0.2-1.3c-0.4-1.4-1.7-2.5-3.6-2.6c5.1-0.6,10.5-4.8,13.5-10.7c1.1-2.2,1.7-4.3,1.7-6.2
		c0-3.6-2.3-6-7.1-6c-0.3,0-0.6,0-0.8,0h-16.9L190,391.3L190,391.3z M210,367.1l6.1-12.1h8.5c2,0,2.5,0.3,3,0.9
		c0.4,0.5,0.6,1.2,0.6,1.9c0,1-0.3,2.1-0.8,3.3c-1.6,3.2-5.2,6-9,6h-0.1L210,367.1L210,367.1z"/>
	<polygon class="st1" points="225.6,391.3 233.3,391.3 242.8,372.6 258.9,372.6 262.5,365.5 246.5,365.5 251.8,355 270.8,355 
		274.5,347.8 247.8,347.8 	"/>
	<path class="st1" d="M262.6,377.6c-1.4,2.6-2.1,5.2-2.1,7.4c0,4.5,3,7.7,10.2,7.7c10.8,0,19-6.9,22.8-14.2c1.1-2.1,1.7-4.2,1.7-6.1
		c0-2.8-1.4-5.1-4.7-6.3l-7.4-2.6c-2.2-0.8-2.3-1.2-2.5-1.9l0,0l0,0c-0.1-0.3-0.1-0.5-0.1-0.8c0-0.6,0.2-1.4,0.6-2.1
		c1.3-2.5,4.7-5.5,9.9-5.5c2.5,0,4,1,4.4,2.3c0.2,0.4,0.2,0.8,0.2,1.4c0,1-0.3,2.1-0.8,3.4l7.3,0.1c1.4-3,1.9-5.2,1.9-7
		c0-1.1-0.2-2-0.6-2.9c-0.9-2.3-3.8-4.3-9.2-4.3c-9.8,0-17.6,6.4-21.2,13.6c-1.1,2.2-1.8,4.2-1.8,6c0,2.7,1.4,4.8,4.7,5.9l6.4,2.2
		c0.2,0.1,0.3,0.1,0.5,0.2c0,0,0,0,0.1,0l0,0c1.1,0.3,2.5,0.8,2.7,2.4c0,0.2,0,0.3,0,0.5c0,0.8-0.3,1.7-0.6,2.4
		c-1.4,2.8-4.8,6-10.8,6c-3.8,0-5.3-1.5-5.3-3.7c0-1.2,0.4-2.6,1.3-4.1L262.6,377.6L262.6,377.6z"/>
	<path class="st2" d="M171,352.5l-7.3,14.2l-5.8,0.3l1-3.1c0.1-0.3,0.2-0.5,0.3-0.8l5.8-0.3l0.6-1.3c1-2.7,1.6-5.2,1.6-7.2
		c0-1.4-0.3-2.7-0.7-3.9c-0.3-0.8-0.7-1.5-1.2-2.2c0.9,0.3,1.8,0.6,2.5,1C169.2,350,170.2,351.1,171,352.5L171,352.5L171,352.5z"/>
	<path class="st2" d="M157.9,378.1h-0.3c-3,5.1-6.9,9.2-12,12.4c-2.3,1.4-4.7,2.5-7.1,3.3s-4.8,1.2-7,1.2c-1.6,0-3.1-0.2-4.4-0.6
		c0.3,0.3,0.5,0.6,0.8,0.9c2.2,2.1,5.1,3.2,8.8,3.2c2.2,0,4.6-0.4,7-1.2c2.5-0.8,4.8-1.9,7.1-3.3c2.1-1.3,4-2.8,5.8-4.4
		c-0.2-0.4-0.3-0.8-0.5-1.4l0,0l0,0c-0.3-0.8-0.3-1.8-0.3-2.6C155.8,383.5,156.5,381,157.9,378.1L157.9,378.1L157.9,378.1z"/>
	<path class="st2" d="M185.4,349h7l-16.9,32.8c-0.2,0.3-0.3,0.5-0.3,0.8c-1.2,0.7-2.5,0.9-3.7,0.9c-1,0-1.7-0.2-2-0.4
		c-0.2-0.2-0.3-0.4-0.3-0.9c0-0.9,0.4-2.2,1.2-3.8L185.4,349L185.4,349z"/>
	<path class="st2" d="M269,366.8h-4.6l-4.1,8.1h-16.2l-9.5,18.6H229l-1.7,3.3v-2.1c0-0.3,0.1-0.8,0.2-1.3h-5.4h-6.9
		c-0.1,0.3-0.1,0.7-0.2,1l-0.2,2.5h12.4h12.6l9.5-18.6h10.4c0.3-0.6,0.5-1.2,0.8-1.8l0.6-1.3l5.8,0.1l2.9-5.6
		C269.3,368.9,269.1,367.9,269,366.8L269,366.8L269,366.8z"/>
	<path class="st2" d="M283.1,378.4l-2.7-0.9c-2-0.7-3.6-1.8-4.7-3.1c-0.1-0.1-0.1-0.2-0.2-0.2l6,2.1c0,0,0,0,0.1,0l0,0l0.3,0.1
		c0.1,0,0.2,0.1,0.3,0.1c0.7,0.3,1.1,0.4,1.1,0.6c0,0,0,0.1,0,0.2C283.4,377.6,283.3,378,283.1,378.4L283.1,378.4L283.1,378.4z"/>
	<path class="st2" d="M271.9,378.8l7,0.1l-1.8,3.2c-0.2,0.3-0.3,0.6-0.4,0.8c-0.8,0.2-1.7,0.3-2.6,0.3c-1.4,0-2.3-0.2-2.8-0.6
		c-0.3-0.2-0.3-0.5-0.3-0.9C271,381,271.3,380,271.9,378.8L271.9,378.8L271.9,378.8z"/>
	<path class="st2" d="M295.8,367.4C295.8,367.5,295.8,367.5,295.8,367.4c1,1.4,1.5,3.1,1.5,5.1c0,2.2-0.7,4.6-1.9,7.1
		c-2.2,4.3-5.3,7.9-9.5,10.7c-4.7,3.1-9.7,4.7-15.3,4.7c-2,0-3.9-0.3-5.5-0.8c0.4,0.6,0.9,1,1.4,1.5c2.2,1.8,5.2,2.7,9.2,2.7
		c5.6,0,10.7-1.6,15.3-4.7c4.1-2.8,7.3-6.3,9.5-10.7c1.3-2.5,1.9-4.9,1.9-7.1c0-1.9-0.5-3.6-1.5-5.1c-1.1-1.5-2.6-2.5-4.7-3.3
		L295.8,367.4L295.8,367.4z"/>
	<path class="st2" d="M292.6,359.8c-0.6,0.3-1.2,0.5-1.7,0.8c-1.1,0.7-1.9,1.6-2.5,2.5l-4.6-1.6c-0.5-0.2-0.8-0.3-1.1-0.4
		c0,0,0,0,0-0.1c0-0.3,0.1-0.6,0.3-1.1c0.6-1.1,1.4-2,2.7-2.9c1.5-0.9,3.2-1.4,5.2-1.4c0.8,0,1.4,0.2,1.9,0.4
		c0.3,0.1,0.3,0.3,0.4,0.4s0.1,0.3,0.1,0.6c0,0.7-0.3,1.5-0.7,2.5L292.6,359.8L292.6,359.8z"/>
	<path class="st2" d="M304.5,348.3c0.3,0.5,0.7,1,0.8,1.5c0.5,1.1,0.8,2.4,0.8,3.7c0,2.2-0.7,4.8-2,8l-0.6,1.4l-5.4-0.1
		c0,0.1-0.1,0.2-0.1,0.3l-1.4,3.1l12.3,0.2l0.6-1.4c1.4-3,2-5.8,2-8c0-1.4-0.3-2.5-0.8-3.7c-0.8-1.7-2-3.1-4-4.1
		C306,348.8,305.3,348.5,304.5,348.3L304.5,348.3L304.5,348.3z"/>
	<path class="st2" d="M276.3,349h3c-2.4,1.7-4.4,3.7-6,6L276.3,349L276.3,349z"/>
	<path class="st2" d="M238.2,349.3c1.5,0.3,2.9,1,3.9,1.9c0.3,0.3,0.7,0.7,0.9,1.1l-20.9,41v-2.1c0-1,0.3-2.2,1-3.7l0,0l3.3-7.6
		c0.9-2.2,1.4-4,1.4-5.3c0-0.7-0.1-1.3-0.3-1.9c-0.2-0.4-0.3-0.8-0.5-1.3c1.3-0.6,2.5-1.4,3.8-2.4c2.7-2.2,4.9-4.8,6.5-8
		c1.4-2.5,1.9-5,1.9-7.2C239.4,352,238.9,350.6,238.2,349.3L238.2,349.3L238.2,349.3z"/>
	<path class="st2" d="M214.1,379.8H213l-8.8,17.3h-12.7l1.8-3.5h5.7l8.8-17.3h5.2l0,0c0.7,0,1.1,0.1,1.4,0.3
		c0.2,0.2,0.3,0.4,0.3,0.9v0.1c0,0.3-0.2,0.8-0.4,1.8l0,0L214.1,379.8L214.1,379.8z"/>
</g>
</svg>
